<svg width="26" height="20" viewBox="0 0 26 20" fill="none" xmlns="http://www.w3.org/2000/svg">
<path d="M18.8721 19.9655C19.0333 19.93 19.1359 19.7938 22.7953 14.8217C24.5248 12.4777 25.9563 10.4888 25.9709 10.4119C26.0198 10.1929 26.0051 9.87323 25.9416 9.70158C25.9074 9.61279 24.3587 7.44044 22.4924 4.86559C19.7271 1.0477 19.0675 0.165738 18.9112 0.0887881C18.75 0.0118384 18.3054 0 15.6476 0C13.8888 0 12.5257 0.0236768 12.4573 0.0532728C12.3302 0.112465 12.2716 0.266364 12.3205 0.426183C12.3351 0.479456 13.8399 2.57485 15.6574 5.0846C18.491 9.00311 18.9649 9.68974 18.9942 9.87915C19.0675 10.4119 19.1946 10.2225 15.6525 15.0111C13.835 17.4735 12.3351 19.5334 12.3205 19.5866C12.2716 19.7405 12.3302 19.8944 12.4573 19.9536C12.5745 20.0069 18.6327 20.0187 18.8721 19.9655Z" fill="#F9EFE8"/>
<path d="M6.50818 19.9572C6.78666 19.8684 7.12866 19.4837 7.76379 18.5484C7.95921 18.2584 8.69694 17.2462 9.39559 16.2991C11.7553 13.1146 13.5191 10.7055 13.6021 10.5575C13.7096 10.3562 13.7096 9.81167 13.607 9.61634C13.5435 9.50387 7.83219 1.57806 6.96254 0.394219C6.82086 0.204804 6.69383 0.104178 6.55215 0.0568244C6.41047 0.00947073 5.41869 -0.00828688 3.24458 0.00355152C0.425571 0.0213091 0.132434 0.0331475 0.0591497 0.121936C0.00540733 0.181128 -0.00924873 0.269916 0.00540733 0.358704C0.02495 0.429734 1.50041 2.51921 3.29344 4.99344C5.08646 7.46767 6.58147 9.55123 6.62055 9.62226C6.71338 9.788 6.71338 10.3799 6.62055 10.5457C6.58147 10.6167 5.08646 12.6588 3.29344 15.0857C1.50041 17.5126 0.02495 19.5606 0.00540733 19.6316C-0.00924873 19.7204 0.00540733 19.8092 0.0591497 19.8684C0.132434 19.9631 0.420686 19.969 3.27878 19.9749C5.00341 19.9809 6.45932 19.9749 6.50818 19.9572Z" fill="#F9EFE8"/>
</svg>
