<svg width="411" height="647" viewBox="0 0 411 647" fill="none" xmlns="http://www.w3.org/2000/svg">
<g filter="url(#filter0_d_45_1966)">
<path d="M756 315.992C680.5 496.559 605 677.125 529.5 631.984C454 586.844 378.5 315.992 303 315.992C227.5 315.992 152 586.844 76.5 631.984C1 677.125 -74.5 496.559 -150 315.992L-150 0C-74.5 0 1 0 76.5 0C152 0 227.5 0 303 0C378.5 0 454 0 529.5 0C605 0 680.5 0 756 0L756 315.992Z" fill="url(#paint0_linear_45_1966)"/>
<path d="M642.323 558.369C680.049 496.338 717.783 406.096 755.539 315.799L756 315.992L756 0.5H755.558H755.5M642.323 558.369L755.5 0.5M642.323 558.369C623.457 589.389 604.625 613.298 585.836 626.639C576.447 633.305 567.09 637.317 557.761 638.276C548.44 639.234 539.11 637.148 529.757 631.555C511.002 620.342 492.183 595.056 473.305 563.311C457.87 537.357 442.436 507.156 426.993 476.937C423.561 470.221 420.128 463.503 416.695 456.832C397.821 420.158 378.931 384.858 360.03 358.725C350.58 345.658 341.111 334.861 331.623 327.327C322.136 319.793 312.592 315.492 303 315.492C293.408 315.492 283.864 319.793 274.377 327.327C264.889 334.861 255.42 345.658 245.97 358.725C227.07 384.858 208.179 420.158 189.305 456.832C185.872 463.504 182.439 470.221 179.006 476.938C163.563 507.157 148.129 537.357 132.695 563.311C113.817 595.056 94.9977 620.342 76.2434 631.555C66.8902 637.148 57.5597 639.234 48.2386 638.276C38.91 637.317 29.5532 633.305 20.1645 626.639C1.37524 613.298 -17.4567 589.389 -36.3228 558.369C-74.0359 496.36 -111.757 406.158 -149.5 315.892M642.323 558.369L-150 315.992M755.5 0.5H755.115H754.673H754.23H753.788H753.346H752.903H752.461H752.019H751.576H751.134H750.691H750.249H749.807H749.364H748.922H748.479H748.037H747.595H747.152H746.71H746.268H745.825H745.383H744.94H744.498H744.056H743.613H743.171H742.729H742.286H741.844H741.401H740.959H740.517H740.074H739.632H739.189H738.747H738.305H737.862H737.42H736.978H736.535H736.093H735.65H735.208H734.766H734.323H733.881H733.438H732.996H732.554H732.111H731.669H731.227H730.784H730.342H729.899H729.457H729.015H728.572H728.13H727.688H727.245H726.803H726.36H725.918H725.476H725.033H724.591H724.148H723.706H723.264H722.821H722.379H721.937H721.494H721.052H720.609H720.167H719.725H719.282H718.84H718.397H717.955H717.513H717.07H716.628H716.186H715.743H715.301H714.858H714.416H713.974H713.531H713.089H712.646H712.204H711.762H711.319H710.877H710.435H709.992H709.55H709.107H708.665H708.223H707.78H707.338H706.896H706.453H706.011H705.568H705.126H704.684H704.241H703.799H703.356H702.914H702.472H702.029H701.587H701.145H700.702H700.26H699.817H699.375H698.933H698.49H698.048H697.605H697.163H696.721H696.278H695.836H695.394H694.951H694.509H694.066H693.624H693.182H692.739H692.297H691.854H691.412H690.97H690.527H690.085H689.643H689.2H688.758H688.315H687.873H687.431H686.988H686.546H686.104H685.661H685.219H684.776H684.334H683.892H683.449H683.007H682.564H682.122H681.68H681.237H680.795H680.353H679.91H679.468H679.025H678.583H678.141H677.698H677.256H676.813H676.371H675.929H675.486H675.044H674.602H674.159H673.717H673.274H672.832H672.39H671.947H671.505H671.063H670.62H670.178H669.735H669.293H668.851H668.408H667.966H667.523H667.081H666.639H666.196H665.754H665.312H664.869H664.427H663.984H663.542H663.1H662.657H662.215H661.772H661.33H660.888H660.445H660.003H659.561H659.118H658.676H658.233H657.791H657.349H656.906H656.464H656.021H655.579H655.137H654.694H654.252H653.81H653.367H652.925H652.482H652.04H651.598H651.155H650.713H650.271H649.828H649.386H648.943H648.501H648.059H647.616H647.174H646.731H646.289H645.847H645.404H644.962H644.52H644.077H643.635H643.192H642.75H642.308H641.865H641.423H640.98H640.538H640.096H639.653H639.211H638.769H638.326H637.884H637.441H636.999H636.557H636.114H635.672H635.229H634.787H634.345H633.902H633.46H633.018H632.575H632.133H631.69H631.248H630.806H630.363H629.921H629.479H629.036H628.594H628.151H627.709H627.267H626.824H626.382H625.939H625.497H625.055H624.612H624.17H623.728H623.285H622.843H622.4H621.958H621.516H621.073H620.631H620.188H619.746H619.304H618.861H618.419H617.977H617.534H617.092H616.649H616.207H615.765H615.322H614.88H614.438H613.995H613.553H613.11H612.668H612.226H611.783H611.341H610.898H610.456H610.014H609.571H609.129H608.687H608.244H607.802H607.359H606.917H606.475H606.032H605.59H605.147H604.705H604.263H603.82H603.378H602.936H602.493H602.051H601.608H601.166H600.724H600.281H599.839H599.396H598.954H598.512H598.069H597.627H597.185H596.742H596.3H595.857H595.415H594.973H594.53H594.088H593.646H593.203H592.761H592.318H591.876H591.434H590.991H590.549H590.106H589.664H589.222H588.779H588.337H587.895H587.452H587.01H586.567H586.125H585.683H585.24H584.798H584.355H583.913H583.471H583.028H582.586H582.144H581.701H581.259H580.816H580.374H579.932H579.489H579.047H578.604H578.162H577.72H577.277H576.835H576.393H575.95H575.508H575.065H574.623H574.181H573.738H573.296H572.854H572.411H571.969H571.526H571.084H570.642H570.199H569.757H569.314H568.872H568.43H567.987H567.545H567.103H566.66H566.218H565.775H565.333H564.891H564.448H564.006H563.563H563.121H562.679H562.236H561.794H561.352H560.909H560.467H560.024H559.582H559.14H558.697H558.255H557.813H557.37H556.928H556.485H556.043H555.601H555.158H554.716H554.273H553.831H553.389H552.946H552.504H552.062H551.619H551.177H550.734H550.292H549.85H549.407H548.965H548.522H548.08H547.638H547.195H546.753H546.311H545.868H545.426H544.983H544.541H544.099H543.656H543.214H542.771H542.329H541.887H541.444H541.002H540.56H540.117H539.675H539.232H538.79H538.348H537.905H537.463H537.021H536.578H536.136H535.693H535.251H534.809H534.366H533.924H533.481H533.039H532.597H532.154H531.712H531.27H530.827H530.385H529.942H529.5H529.058H528.615H528.173H527.73H527.288H526.846H526.403H525.961H525.519H525.076H524.634H524.191H523.749H523.307H522.864H522.422H521.979H521.537H521.095H520.652H520.21H519.768H519.325H518.883H518.44H517.998H517.556H517.113H516.671H516.229H515.786H515.344H514.901H514.459H514.017H513.574H513.132H512.689H512.247H511.805H511.362H510.92H510.478H510.035H509.593H509.15H508.708H508.266H507.823H507.381H506.938H506.496H506.054H505.611H505.169H504.727H504.284H503.842H503.399H502.957H502.515H502.072H501.63H501.188H500.745H500.303H499.86H499.418H498.976H498.533H498.091H497.648H497.206H496.764H496.321H495.879H495.437H494.994H494.552H494.109H493.667H493.225H492.782H492.34H491.897H491.455H491.013H490.57H490.128H489.686H489.243H488.801H488.358H487.916H487.474H487.031H486.589H486.146H485.704H485.262H484.819H484.377H483.935H483.492H483.05H482.607H482.165H481.723H481.28H480.838H480.396H479.953H479.511H479.068H478.626H478.184H477.741H477.299H476.856H476.414H475.972H475.529H475.087H474.645H474.202H473.76H473.317H472.875H472.433H471.99H471.548H471.105H470.663H470.221H469.778H469.336H468.894H468.451H468.009H467.566H467.124H466.682H466.239H465.797H465.354H464.912H464.47H464.027H463.585H463.143H462.7H462.258H461.815H461.373H460.931H460.488H460.046H459.604H459.161H458.719H458.276H457.834H457.392H456.949H456.507H456.064H455.622H455.18H454.737H454.295H453.853H453.41H452.968H452.525H452.083H451.641H451.198H450.756H450.313H449.871H449.429H448.986H448.544H448.102H447.659H447.217H446.774H446.332H445.89H445.447H445.005H444.563H444.12H443.678H443.235H442.793H442.351H441.908H441.466H441.023H440.581H440.139H439.696H439.254H438.812H438.369H437.927H437.484H437.042H436.6H436.157H435.715H435.272H434.83H434.388H433.945H433.503H433.061H432.618H432.176H431.733H431.291H430.849H430.406H429.964H429.521H429.079H428.637H428.194H427.752H427.31H426.867H426.425H425.982H425.54H425.098H424.655H424.213H423.771H423.328H422.886H422.443H422.001H421.559H421.116H420.674H420.231H419.789H419.347H418.904H418.462H418.02H417.577H417.135H416.692H416.25H415.808H415.365H414.923H414.48H414.038H413.596H413.153H412.711H412.269H411.826H411.384H410.941H410.499H410.057H409.614H409.172H408.729H408.287H407.845H407.402H406.96H406.518H406.075H405.633H405.19H404.748H404.306H403.863H403.421H402.979H402.536H402.094H401.651H401.209H400.767H400.324H399.882H399.439H398.997H398.555H398.112H397.67H397.228H396.785H396.343H395.9H395.458H395.016H394.573H394.131H393.688H393.246H392.804H392.361H391.919H391.477H391.034H390.592H390.149H389.707H389.265H388.822H388.38H387.938H387.495H387.053H386.61H386.168H385.726H385.283H384.841H384.398H383.956H383.514H383.071H382.629H382.187H381.744H381.302H380.859H380.417H379.975H379.532H379.09H378.647H378.205H377.763H377.32H376.878H376.436H375.993H375.551H375.108H374.666H374.224H373.781H373.339H372.896H372.454H372.012H371.569H371.127H370.685H370.242H369.8H369.357H368.915H368.473H368.03H367.588H367.146H366.703H366.261H365.818H365.376H364.934H364.491H364.049H363.606H363.164H362.722H362.279H361.837H361.395H360.952H360.51H360.067H359.625H359.183H358.74H358.298H357.855H357.413H356.971H356.528H356.086H355.644H355.201H354.759H354.316H353.874H353.432H352.989H352.547H352.104H351.662H351.22H350.777H350.335H349.893H349.45H349.008H348.565H348.123H347.681H347.238H346.796H346.354H345.911H345.469H345.026H344.584H344.142H343.699H343.257H342.814H342.372H341.93H341.487H341.045H340.603H340.16H339.718H339.275H338.833H338.391H337.948H337.506H337.063H336.621H336.179H335.736H335.294H334.852H334.409H333.967H333.524H333.082H332.64H332.197H331.755H331.313H330.87H330.428H329.985H329.543H329.101H328.658H328.216H327.773H327.331H326.889H326.446H326.004H325.562H325.119H324.677H324.234H323.792H323.35H322.907H322.465H322.022H321.58H321.138H320.695H320.253H319.811H319.368H318.926H318.483H318.041H317.599H317.156H316.714H316.271H315.829H315.387H314.944H314.502H314.06H313.617H313.175H312.732H312.29H311.848H311.405H310.963H310.521H310.078H309.636H309.193H308.751H308.309H307.866H307.424H306.981H306.539H306.097H305.654H305.212H304.77H304.327H303.885H303.442H303H302.558H302.115H301.673H301.23H300.788H300.346H299.903H299.461H299.019H298.576H298.134H297.691H297.249H296.807H296.364H295.922H295.479H295.037H294.595H294.152H293.71H293.268H292.825H292.383H291.94L291.498 0.5H291.056H290.613H290.171H289.729H289.286H288.844H288.401H287.959H287.517H287.074H286.632H286.189H285.747H285.305H284.862H284.42H283.978H283.535H283.093H282.65H282.208H281.766H281.323H280.881H280.438H279.996H279.554H279.111H278.669H278.227H277.784H277.342H276.899H276.457H276.015H275.572H275.13H274.688H274.245H273.803H273.36H272.918H272.476H272.033H271.591H271.148H270.706H270.264H269.821H269.379H268.937H268.494H268.052H267.609H267.167H266.725H266.282H265.84H265.397H264.955H264.513H264.07H263.628H263.186H262.743H262.301H261.858H261.416H260.974H260.531H260.089H259.646H259.204H258.762H258.319H257.877H257.435H256.992H256.55H256.107H255.665H255.223H254.78H254.338H253.896H253.453H253.011H252.568H252.126H251.684H251.241H250.799H250.356H249.914H249.472H249.029H248.587H248.145H247.702H247.26H246.817H246.375H245.933H245.49H245.048H244.605H244.163H243.721H243.278H242.836H242.394H241.951H241.509H241.066H240.624H240.182H239.739H239.297H238.854H238.412H237.97H237.527H237.085H236.643H236.2H235.758H235.315H234.873H234.431H233.988H233.546H233.104H232.661H232.219H231.776H231.334H230.892H230.449H230.007H229.564H229.122H228.68H228.237H227.795H227.353H226.91H226.468H226.025H225.583H225.141H224.698H224.256H223.813H223.371H222.929H222.486H222.044H221.602H221.159H220.717H220.274H219.832H219.39H218.947H218.505H218.063H217.62H217.178H216.735H216.293H215.851H215.408H214.966H214.523H214.081H213.639H213.196H212.754H212.312H211.869H211.427H210.984H210.542H210.1H209.657H209.215H208.772H208.33H207.888H207.445H207.003H206.561H206.118H205.676H205.233H204.791H204.349H203.906H203.464H203.021H202.579H202.137H201.694H201.252H200.81H200.367H199.925H199.482H199.04H198.598H198.155H197.713H197.271H196.828H196.386H195.943H195.501H195.059H194.616H194.174H193.731H193.289H192.847H192.404H191.962H191.52H191.077H190.635H190.192H189.75H189.308H188.865H188.423H187.98H187.538H187.096H186.653H186.211H185.769H185.326H184.884H184.441H183.999H183.557H183.114H182.672H182.229H181.787H181.345H180.902H180.46H180.018H179.575H179.133H178.69H178.248H177.806H177.363H176.921H176.479H176.036H175.594H175.151H174.709H174.267H173.824H173.382H172.939H172.497H172.055H171.612H171.17H170.728H170.285H169.843H169.4H168.958H168.516H168.073H167.631H167.188H166.746H166.304H165.861H165.419H164.977H164.534H164.092H163.649H163.207H162.765H162.322H161.88H161.438H160.995H160.553H160.11H159.668H159.226H158.783H158.341H157.898H157.456H157.014H156.571H156.129H155.687H155.244H154.802H154.359H153.917H153.475H153.032H152.59H152.147H151.705H151.263H150.82H150.378H149.936H149.493H149.051H148.608H148.166H147.724H147.281H146.839H146.396H145.954H145.512H145.069H144.627H144.185H143.742H143.3H142.857H142.415H141.973H141.53H141.088H140.646H140.203H139.761H139.318H138.876H138.434H137.991H137.549H137.106H136.664H136.222H135.779H135.337H134.895H134.452H134.01H133.567H133.125H132.683H132.24H131.798H131.355H130.913H130.471H130.028H129.586H129.144H128.701H128.259H127.816H127.374H126.932H126.489H126.047H125.604H125.162H124.72H124.277H123.835H123.393H122.95H122.508H122.065H121.623H121.181H120.738H120.296H119.854H119.411H118.969H118.526H118.084H117.642H117.199H116.757H116.314H115.872H115.43H114.987H114.545H114.103H113.66H113.218H112.775H112.333H111.891H111.448H111.006H110.563H110.121H109.679H109.236H108.794H108.352H107.909H107.467H107.024H106.582H106.14H105.697H105.255H104.813H104.37H103.928H103.485H103.043H102.601H102.158H101.716H101.273H100.831H100.389H99.9463H99.5039H99.0615H98.6191H98.1768H97.7344H97.292H96.8496H96.4072H95.9648H95.5225H95.0801H94.6377H94.1953H93.7529H93.3105H92.8682H92.4258H91.9834H91.541H91.0986H90.6563H90.2139H89.7715H89.3291H88.8867H88.4443H88.002H87.5596H87.1172H86.6748H86.2324H85.79H85.3477H84.9053H84.4629H84.0205H83.5781H83.1357H82.6934H82.251H81.8086H81.3662H80.9238H80.4814H80.0391H79.5967H79.1543H78.7119H78.2695H77.8271H77.3848H76.9424H76.5H76.0576H75.6152H75.1729H74.7305H74.2881H73.8457H73.4033H72.9609H72.5186H72.0762H71.6338H71.1914H70.749H70.3066H69.8643H69.4219H68.9795H68.5371H68.0947H67.6523H67.21H66.7676H66.3252H65.8828H65.4404H64.998H64.5557H64.1133H63.6709H63.2285H62.7861H62.3438H61.9014H61.459H61.0166H60.5742H60.1318H59.6895H59.2471H58.8047H58.3623H57.9199H57.4775H57.0352H56.5928H56.1504H55.708H55.2656H54.8232H54.3809H53.9385H53.4961H53.0537H52.6113H52.1689H51.7266H51.2842H50.8418H50.3994H49.957H49.5146H49.0723H48.6299H48.1875H47.7451H47.3027H46.8604H46.418H45.9756H45.5332H45.0908H44.6484H44.2061H43.7637H43.3213H42.8789H42.4365H41.9941H41.5518H41.1094H40.667H40.2246H39.7822H39.3398H38.8975H38.4551H38.0127H37.5703H37.1279H36.6855H36.2432H35.8008H35.3584H34.916H34.4736H34.0313H33.5889H33.1465H32.7041H32.2617H31.8193H31.377H30.9346H30.4922H30.0498H29.6074H29.165H28.7227H28.2803H27.8379H27.3955H26.9531H26.5107H26.0684H25.626H25.1836H24.7412H24.2988H23.8564H23.4141H22.9717H22.5293H22.0869H21.6445H21.2021H20.7598H20.3174H19.875H19.4326H18.9902H18.5479H18.1055H17.6631H17.2207H16.7783H16.3359H15.8936H15.4512H15.0088H14.5664H14.124H13.6816H13.2393H12.7969H12.3545H11.9121H11.4697H11.0273H10.585H10.1426H9.7002H9.25781H8.81543H8.37305H7.93066H7.48828H7.0459H6.60352H6.16113H5.71875H5.27637H4.83398H4.3916H3.94922H3.50684H3.06445H2.62207H2.17969H1.7373H1.29492H0.852539H0.410156H-0.0322266H-0.474609H-0.916992H-1.35937H-1.80176H-2.24414H-2.68652H-3.12891H-3.57129H-4.01367H-4.45605H-4.89844H-5.34082H-5.7832H-6.22559H-6.66797H-7.11035H-7.55273H-7.99512H-8.4375H-8.87988H-9.32227H-9.76465H-10.207H-10.6494H-11.0918H-11.5342H-11.9766H-12.4189H-12.8613H-13.3037H-13.7461H-14.1885H-14.6309H-15.0732H-15.5156H-15.958H-16.4004H-16.8428H-17.2852H-17.7275H-18.1699H-18.6123H-19.0547H-19.4971H-19.9395H-20.3818H-20.8242H-21.2666H-21.709H-22.1514H-22.5937H-23.0361H-23.4785H-23.9209H-24.3633H-24.8057H-25.248H-25.6904H-26.1328H-26.5752H-27.0176H-27.46H-27.9023H-28.3447H-28.7871H-29.2295H-29.6719H-30.1143H-30.5566H-30.999H-31.4414H-31.8838H-32.3262H-32.7686H-33.2109H-33.6533H-34.0957H-34.5381H-34.9805H-35.4229H-35.8652H-36.3076H-36.75H-37.1924H-37.6348H-38.0771H-38.5195H-38.9619H-39.4043H-39.8467H-40.2891H-40.7314H-41.1738H-41.6162H-42.0586H-42.501H-42.9434H-43.3857H-43.8281H-44.2705H-44.7129H-45.1553H-45.5977H-46.04H-46.4824H-46.9248H-47.3672H-47.8096H-48.252H-48.6943H-49.1367H-49.5791H-50.0215H-50.4639H-50.9062H-51.3486H-51.791H-52.2334H-52.6758H-53.1182H-53.5605H-54.0029H-54.4453H-54.8877H-55.3301H-55.7725H-56.2148H-56.6572H-57.0996H-57.542H-57.9844H-58.4268H-58.8691H-59.3115H-59.7539H-60.1963H-60.6387H-61.0811H-61.5234H-61.9658H-62.4082H-62.8506H-63.293H-63.7354H-64.1777H-64.6201H-65.0625H-65.5049H-65.9473H-66.3896H-66.832H-67.2744H-67.7168H-68.1592H-68.6016H-69.0439H-69.4863H-69.9287H-70.3711H-70.8135H-71.2559H-71.6982H-72.1406H-72.583H-73.0254H-73.4678H-73.9102H-74.3525H-74.7949H-75.2373H-75.6797H-76.1221H-76.5645H-77.0068H-77.4492H-77.8916H-78.334H-78.7764H-79.2187H-79.6611H-80.1035H-80.5459H-80.9883H-81.4307H-81.873H-82.3154H-82.7578H-83.2002H-83.6426H-84.085H-84.5273H-84.9697H-85.4121H-85.8545H-86.2969H-86.7393H-87.1816H-87.624H-88.0664H-88.5088H-88.9512H-89.3936H-89.8359H-90.2783H-90.7207H-91.1631H-91.6055H-92.0479H-92.4902H-92.9326H-93.375H-93.8174H-94.2598H-94.7021H-95.1445H-95.5869H-96.0293H-96.4717H-96.9141H-97.3564H-97.7988H-98.2412H-98.6836H-99.126H-99.5684H-100.011H-100.453H-100.896H-101.338H-101.78H-102.223H-102.665H-103.107H-103.55H-103.992H-104.435H-104.877H-105.319H-105.762H-106.204H-106.646H-107.089H-107.531H-107.974H-108.416H-108.858H-109.301H-109.743H-110.186H-110.628H-111.07H-111.513H-111.955H-112.397H-112.84H-113.282H-113.725H-114.167H-114.609H-115.052H-115.494H-115.937H-116.379H-116.821H-117.264H-117.706H-118.148H-118.591H-119.033H-119.476H-119.918H-120.36H-120.803H-121.245H-121.687H-122.13H-122.572H-123.015H-123.457H-123.899H-124.342H-124.784H-125.227H-125.669H-126.111H-126.554H-126.996H-127.438H-127.881H-128.323H-128.766H-129.208H-129.65H-130.093H-130.535H-130.978H-131.42H-131.862H-132.305H-132.747H-133.189H-133.632H-134.074H-134.517H-134.959H-135.401H-135.844H-136.286H-136.729H-137.171H-137.613H-138.056H-138.498H-138.94H-139.383H-139.825H-140.268H-140.71H-141.152H-141.595H-142.037H-142.479H-142.922H-143.364H-143.807H-144.249H-144.691H-145.134H-145.576H-146.019H-146.461H-146.903H-147.346H-147.788H-148.23H-148.673H-149.115H-149.5M755.5 0.5L-149.5 0.5M-149.5 0.5V0H76.5L303 0H529.5L-149.5 0.5ZM-149.5 0.5H-149.558H-150L-150 315.992M-149.5 0.5L-149.5 315.892M-149.5 315.892C-149.513 315.861 -149.526 315.83 -149.539 315.799L-150 315.992M-149.5 315.892V315.992H-150" stroke="#DDB7AC"/>
</g>
<defs>
<filter id="filter0_d_45_1966" x="-154" y="0" width="914" height="647" filterUnits="userSpaceOnUse" color-interpolation-filters="sRGB">
<feFlood flood-opacity="0" result="BackgroundImageFix"/>
<feColorMatrix in="SourceAlpha" type="matrix" values="0 0 0 0 0 0 0 0 0 0 0 0 0 0 0 0 0 0 127 0" result="hardAlpha"/>
<feOffset dy="4"/>
<feGaussianBlur stdDeviation="2"/>
<feComposite in2="hardAlpha" operator="out"/>
<feColorMatrix type="matrix" values="0 0 0 0 0 0 0 0 0 0 0 0 0 0 0 0 0 0 0.25 0"/>
<feBlend mode="normal" in2="BackgroundImageFix" result="effect1_dropShadow_45_1966"/>
<feBlend mode="normal" in="SourceGraphic" in2="effect1_dropShadow_45_1966" result="shape"/>
</filter>
<linearGradient id="paint0_linear_45_1966" x1="303" y1="0" x2="303" y2="639" gradientUnits="userSpaceOnUse">
<stop offset="0.057805" stop-color="#AC877A"/>
<stop offset="0.183145" stop-color="#AC877A"/>
<stop offset="0.553487" stop-color="#AC877A"/>
<stop offset="0.7422" stop-color="#C19B8F"/>
<stop offset="1" stop-color="#DDB7AC"/>
</linearGradient>
</defs>
</svg>
